<svg style="position: absolute; width: 0; height: 0;" width="0" height="0" version="1.1" xmlns="http://www.w3.org/2000/svg" xmlns:xlink="http://www.w3.org/1999/xlink">
<defs>
<symbol id="icon-phone" viewBox="0 0 1024 1024">
<title>phone</title>
<path class="path1" d="M703.968 128h-384c-35.328 0-63.968 28.672-63.968 64v640c0 35.328 28.64 64 63.968 64h384c35.36 0 64.032-28.672 64.032-64v-640c0-35.328-28.672-64-64.032-64zM416 160h160l1.984 32h-161.984v-32zM511.328 848c-17.664 0-32-14.304-32-32s14.336-32 32-32c17.696 0 32 14.304 32 32s-14.336 32-32 32zM703.968 736h-384l0.672-512h383.328v512z"></path>
</symbol>
<symbol id="icon-tablet" viewBox="0 0 1024 1024">
<title>tablet</title>
<path class="path1" d="M736.032 128h-480c-35.36 0-64.032 28.672-64.032 64v640c0 35.328 28.672 64 64.032 64h480c35.328 0 63.968-28.672 63.968-64v-640c0-35.328-28.64-64-63.968-64zM496 864c-17.664 0-31.968-14.304-31.968-32s14.304-32 31.968-32c17.696 0 32.032 14.304 32.032 32s-14.336 32-32.032 32zM735.712 766.016h-480.832v-573.184h480.832v573.184z"></path>
</symbol>
<symbol id="icon-watch" viewBox="0 0 1024 1024">
<title>watch</title>
<path class="path1" d="M896 576.992h-32v224c0 52.992-43.008 96-96 96h-128v126.016h-352v-126.016h-128c-53.024 0-96-43.008-96-96v-544c0-53.024 42.976-96 96-96h128v-128h352v128h128c52.992 0 96 42.976 96 96v224h32c17.664 0 32 14.336 32 32v32c0 17.664-14.336 32-32 32zM800 288.992c0-35.36-28.672-64-64-64h-544c-35.328 0-64 28.672-64 64v480c0 35.328 28.672 64 64 64h544c35.328 0 64-28.672 64-64v-480zM672 544.992h-64v-96h32v64h32v-64h32v160h-32v-64zM512 608.992h-32v-160h96v160h-64zM544 480.992h-32v96h32v-96zM416 544.992h32v32h-32v-32zM416 480.992h32v32h-32v-32zM320 608.992v-32h32v-32h-32v-32h32v-32h-32v-32h64v160h-64zM224 608.992v-96h32v-32h-32v-32h64v96h-32v32h32v32h-64z"></path>
</symbol>
<symbol id="icon-gamepad" viewBox="0 0 1054 1024">
<title>gamepad</title>
<path class="path1" d="M736.448 142.688c-45.312 0-133.312 64-208 64-74.656 0-168-64-208-64-274.656 0-432 738.624-226.656 738.624 173.344 0 196.672-216 433.984-216 192 0 304.672 213.376 432.672 213.376 205.312 0 50.688-736-224-736zM304.416 558.688c-79.52 0-144-64.512-144-144 0-79.52 64.48-144 144-144s144 64.48 144 144c0 79.488-64.448 144-144 144zM686.432 478.688c-17.696 0-32-14.304-32-32s14.304-32 32-32 32 14.304 32 32-14.304 32-32 32zM784.448 574.688c-17.696 0-32-14.304-32-32s14.304-32 32-32 32 14.304 32 32-14.336 32-32 32zM784.448 382.688c-17.696 0-32-14.304-32-32s14.304-32 32-32 32 14.304 32 32-14.336 32-32 32zM880.448 478.688c-17.696 0-32-14.304-32-32s14.304-32 32-32 32 14.304 32 32-14.336 32-32 32zM304.416 334.688c-44.16 0-80 35.808-80 80s35.84 80 80 80c44.192 0 80-35.808 80-80s-35.808-80-80-80z"></path>
</symbol>
<symbol id="icon-box" viewBox="0 0 1024 1024">
<title>box</title>
<path class="path1" d="M64.16 730.4l417.248 197.408v-441.6l-417.248-176.64v420.832zM192.192 473.312l160.832 74.784-0.928 58.944-160.8-74.752 0.896-58.976zM512 486.208v441.6l415.808-197.408v-420.832l-415.808 176.64zM494.496 96.192l-427.616 184.224 428 182.784 432.448-183.2-432.832-183.808z"></path>
</symbol>
<symbol id="icon-heart" viewBox="0 0 1024 1024">
<title>heart</title>
<path class="path1" d="M513.344 267.040c0 0-64-136.384-208-136.384-157.344 0-240 133.344-240 266.656 0 221.344 448 496 448 496s445.312-272 445.312-496c0-136-85.312-266.656-237.312-266.656s-208 136.384-208 136.384z"></path>
</symbol>
<symbol id="icon-car" viewBox="0 0 1024 1024">
<title>car</title>
<path class="path1" d="M864 704h-736c-35.328 0-64-28.672-64-64v-160c0-35.328 28.672-64 64-64h32c0 0 47.328-144 61.312-192s28.672-64 64.032-64h421.312c35.328 0 46.016 9.984 64 64s61.344 192 61.344 192h32c35.328 0 64 28.672 64 64v160c0 35.328-28.672 64-64 64zM288 640h416v-32h-416v32zM704 416c0-35.328-28.672-68-64-68s-64 32.672-64 68c0 0.832 128 0.832 128 0zM288 576h416v-32h-416v32zM288 512h416v-32h-416v32zM129.984 544c0 35.328 28.672 64 64 64s64-28.672 64-64-28.672-64-64-64-64 28.672-64 64zM738.656 224c-8-22.016-14.304-32-32-32h-194.656v32h16c8.832 0 16 7.168 16 16s-7.168 16-16 16h-64c-8.832 0-16-7.168-16-16s7.168-16 16-16h16v-32h-194.656c-17.696 0-24.032 4-32 32-8.032 28-61.344 192-61.344 192h366.72c0.736-43.648 36.16-84.576 79.84-84.576 43.712 0 79.104 40.896 79.872 84.576h81.568c0 0-53.344-169.984-61.344-192zM798.016 481.984c-35.328 0-64 28.672-64 64s28.672 64 64 64 64-28.672 64-64-28.672-64-64-64zM224 816c0 26.496-21.504 48-48 48s-48-21.504-48-48v-80h96v80zM864 816c0 26.496-21.504 48-48 48s-48-21.504-48-48v-80h96v80z"></path>
</symbol>
<symbol id="icon-sound" viewBox="0 0 1024 1024">
<title>sound</title>
<path class="path1" d="M863.936 448.096c0-158.784-129.184-288-288-287.968v-0.128c-8.8-0.032-15.936-7.2-15.936-16 0-8.832 7.136-16 16-16 0.32 0 0.576 0.128 0.8 0.192 176.256 0.416 318.944 143.264 319.136 319.552 0 0.096 0.064 0.16 0.064 0.256 0 8.832-7.2 15.968-16 15.968s-15.936-7.104-16-15.872h-0.064zM291.872 28.096c-18.336-18.368-42.912-28.096-67.904-28.096-12.352 0-24.8 2.368-36.672 7.296-35.904 14.848-59.296 49.856-59.296 88.704l-0.032 440.224-99.84 99.904c-37.504 37.44-37.504 98.24 0 135.744l224 224c18.752 18.752 43.296 28.128 67.872 28.128s49.12-9.376 67.872-28.128l99.872-99.872h440.192c38.88 0 73.888-23.36 88.672-59.264 14.88-35.872 6.688-77.184-20.8-104.64l-703.936-704zM442.496 850.752l-99.872 99.872c-8.16 8.128-17.696 9.376-22.624 9.376s-14.464-1.248-22.624-9.376l-224-224c-8.16-8.192-9.376-17.696-9.376-22.624s1.216-14.496 9.376-22.624l99.84-99.872c0.288-0.32 0.384-0.672 0.672-0.992l269.6 269.632c-0.288 0.224-0.704 0.288-0.992 0.608zM487.744 832c-4.96 0-9.568 1.76-14.304 2.816l-284.32-284.32c1.088-4.736 2.848-9.344 2.848-14.272l0.032-385.472 681.184 681.248h-385.44zM957.504 812.256c-4.928 12-16.576 19.744-29.568 19.744h-9.504l-726.432-726.496v-9.504c0-12.992 7.744-24.608 19.744-29.568 3.936-1.632 8.032-2.432 12.224-2.432 8.576 0 16.608 3.328 22.624 9.344l703.968 704.032c9.184 9.184 11.936 22.88 6.944 34.88zM575.936 64c-17.632-0.032-31.936-14.368-31.936-32 0-17.696 14.304-32 32-32 0.32 0 0.576 0.128 0.8 0.16 246.944 0.448 446.944 200.608 447.136 447.584 0 0.096 0.064 0.16 0.064 0.256 0 17.696-14.304 32-32 32-17.632 0-31.936-14.272-32-31.872h-0.064c0-211.744-172.256-384-384-384v-0.128z"></path>
</symbol>
<symbol id="icon-camera" viewBox="0 0 1024 1024">
<title>camera</title>
<path class="path1" d="M512 320.032c-141.408 0-256 114.592-256 256 0 141.376 114.592 256 256 256 141.376 0 256-114.624 256-256s-114.624-256-256-256zM657.76 700.992c-68.992 80.512-190.176 89.824-270.688 20.8-80.544-68.992-89.824-190.208-20.8-270.688 68.96-80.544 190.176-89.824 270.688-20.8 80.48 68.96 89.792 190.208 20.8 270.688zM512 448.032c8.832 0 16 7.168 16 16s-7.168 16-16 16c-53.024 0-95.968 42.976-96 95.968v0.064c0 8.8-7.168 16-16 16s-16-7.2-16-16v-0.064c0.032-70.656 57.312-127.968 128-127.968zM943.744 289.344l-138.688-23.136-43.936-109.888c-14.688-36.64-49.696-60.32-89.12-60.32h-320c-39.424 0-74.432 23.68-89.152 60.352l-43.904 109.856-138.656 23.136c-46.528 7.712-80.288 47.52-80.288 94.656v480c0 52.928 43.072 96 96 96h832c52.928 0 96-43.072 96-96v-480c0-47.136-33.76-86.944-80.256-94.656zM960 864c0 17.696-14.304 32-32 32h-832c-17.696 0-32-14.304-32-32v-480c0-15.648 11.328-28.992 26.752-31.552l174.208-29.024 57.312-143.296c4.896-12.128 16.64-20.128 29.728-20.128h320c13.056 0 24.8 7.968 29.696 20.128l57.312 143.296 174.24 29.024c15.424 2.56 26.752 15.904 26.752 31.552v480z"></path>
</symbol>
<symbol id="icon-data" viewBox="0 0 1024 1024">
<title>data</title>
<path class="path1" d="M512 0c-215.808 0-448 65.056-448 208v608c0 142.88 232.192 208 448 208 215.776 0 448-65.12 448-208v-608c0-142.944-232.256-208-448-208zM896 816c0 79.488-171.936 144-384 144-212.096 0-384-64.512-384-144v-119.552c66.112 68.128 225.6 103.552 384 103.552s317.888-35.424 384-103.552v119.552zM896 624h-0.128c0 0.32 0.128 0.672 0.128 0.992 0 79.008-171.936 143.008-384 143.008s-384-64-384-143.008c0-0.32 0.128-0.672 0.128-0.992h-0.128v-119.552c66.112 68.128 225.6 103.552 384 103.552s317.888-35.424 384-103.552v119.552zM896 432h-0.128c0 0.32 0.128 0.672 0.128 0.992 0 79.008-171.936 143.008-384 143.008s-384-64-384-143.008c0-0.32 0.128-0.672 0.128-0.992h-0.128v-109.952c83.872 63.904 237.6 93.952 384 93.952s300.128-30.048 384-93.952v109.952zM512 352c-212.096 0-384-64.512-384-144 0-79.552 171.904-144 384-144 212.064 0 384 64.448 384 144 0 79.488-171.936 144-384 144zM768 832c0-17.673 14.327-32 32-32s32 14.327 32 32c0 17.673-14.327 32-32 32s-32-14.327-32-32zM768 640c0-17.673 14.327-32 32-32s32 14.327 32 32c0 17.673-14.327 32-32 32s-32-14.327-32-32zM768 448c0-17.673 14.327-32 32-32s32 14.327 32 32c0 17.673-14.327 32-32 32s-32-14.327-32-32z"></path>
</symbol>
<symbol id="icon-home" viewBox="0 0 950.8578853607178 1024">
<title>home</title>
<path class="path1" d="M804.571 566.857v274.286q0 14.857-10.857 25.714t-25.714 10.857h-219.429v-219.429h-146.286v219.429h-219.429q-14.857 0-25.714-10.857t-10.857-25.714v-274.286q0-0.571 0.286-1.714t0.286-1.714l328.571-270.857 328.571 270.857q0.571 1.143 0.571 3.429zM932 527.429l-35.429 42.286q-4.571 5.143-12 6.286h-1.714q-7.429 0-12-4l-395.429-329.714-395.429 329.714q-6.857 4.571-13.714 4-7.429-1.143-12-6.286l-35.429-42.286q-4.571-5.714-4-13.429t6.286-12.286l410.857-342.286q18.286-14.857 43.429-14.857t43.429 14.857l139.429 116.571v-111.429q0-8 5.143-13.143t13.143-5.143h109.714q8 0 13.143 5.143t5.143 13.143v233.143l125.143 104q5.714 4.571 6.286 12.286t-4 13.429z"></path>
</symbol>
<symbol id="icon-camera2" viewBox="0 0 1097.143094380619 1024">
<title>camera2</title>
<path class="path1" d="M548.571 384q68 0 116.286 48.286t48.286 116.286-48.286 116.286-116.286 48.286-116.286-48.286-48.286-116.286 48.286-116.286 116.286-48.286zM950.857 146.286q60.571 0 103.429 42.857t42.857 103.429v512q0 60.571-42.857 103.429t-103.429 42.857h-804.571q-60.571 0-103.429-42.857t-42.857-103.429v-512q0-60.571 42.857-103.429t103.429-42.857h128l29.143-77.714q10.857-28 39.714-48.286t59.143-20.286h292.571q30.286 0 59.143 20.286t39.714 48.286l29.143 77.714h128zM548.571 804.571q105.714 0 180.857-75.143t75.143-180.857-75.143-180.857-180.857-75.143-180.857 75.143-75.143 180.857 75.143 180.857 180.857 75.143z"></path>
</symbol>
<symbol id="icon-extreme_camera" viewBox="0 0 877.7130457558669 1024">
<title>extreme_camera</title>
<path class="path1" d="M778.286 814.857v-370.286h-77.143q11.429 36 11.429 74.857 0 72-36.571 132.857t-99.429 96.286-137.143 35.429q-112.571 0-192.571-77.429t-80-187.143q0-38.857 11.429-74.857h-80.571v370.286q0 14.857 10 24.857t24.857 10h610.857q14.286 0 24.571-10t10.286-24.857zM616 510.286q0-70.857-51.714-120.857t-124.857-50q-72.571 0-124.286 50t-51.714 120.857 51.714 120.857 124.286 50q73.143 0 124.857-50t51.714-120.857zM778.286 304.571v-94.286q0-16-11.429-27.714t-28-11.714h-99.429q-16.571 0-28 11.714t-11.429 27.714v94.286q0 16.571 11.429 28t28 11.429h99.429q16.571 0 28-11.429t11.429-28zM877.714 185.714v652.571q0 46.286-33.143 79.429t-79.429 33.143h-652.571q-46.286 0-79.429-33.143t-33.143-79.429v-652.571q0-46.286 33.143-79.429t79.429-33.143h652.571q46.286 0 79.429 33.143t33.143 79.429z"></path>
</symbol>
<symbol id="icon-camera3" viewBox="0 0 1024 1024">
<title>camera3</title>
<path class="path1" d="M304 608c0 114.876 93.124 208 208 208s208-93.124 208-208-93.124-208-208-208-208 93.124-208 208zM960 256h-224c-16-64-32-128-96-128h-256c-64 0-80 64-96 128h-224c-35.2 0-64 28.8-64 64v576c0 35.2 28.8 64 64 64h896c35.2 0 64-28.8 64-64v-576c0-35.2-28.8-64-64-64zM512 892c-156.85 0-284-127.148-284-284 0-156.85 127.15-284 284-284 156.852 0 284 127.15 284 284 0 156.852-127.146 284-284 284zM960 448h-128v-64h128v64z"></path>
</symbol>
<symbol id="icon-headphones" viewBox="0 0 1024 1024">
<title>headphones</title>
<path class="path1" d="M288 576h-64v448h64c17.6 0 32-14.4 32-32v-384c0-17.6-14.4-32-32-32z"></path>
<path class="path2" d="M736 576c-17.602 0-32 14.4-32 32v384c0 17.6 14.398 32 32 32h64v-448h-64z"></path>
<path class="path3" d="M1024 512c0-282.77-229.23-512-512-512s-512 229.23-512 512c0 61.412 10.83 120.29 30.656 174.848-19.478 33.206-30.656 71.87-30.656 113.152 0 112.846 83.448 206.188 192 221.716v-443.418c-31.914 4.566-61.664 15.842-87.754 32.378-5.392-26.718-8.246-54.364-8.246-82.676 0-229.75 186.25-416 416-416s416 186.25 416 416c0 28.314-2.83 55.968-8.22 82.696-26.1-16.546-55.854-27.848-87.78-32.418v443.44c108.548-15.532 192-108.874 192-221.714 0-41.274-11.178-79.934-30.648-113.138 19.828-54.566 30.648-113.452 30.648-174.866z"></path>
</symbol>
<symbol id="icon-compass" viewBox="0 0 1024 1024">
<title>compass</title>
<path class="path1" d="M544.010 1024.004c-2.296 0-4.622-0.25-6.94-0.764-14.648-3.25-25.070-16.238-25.070-31.24v-480h-480c-15.002 0-27.992-10.422-31.24-25.070-3.25-14.646 4.114-29.584 17.708-35.928l960-448c12.196-5.688 26.644-3.144 36.16 6.372 9.516 9.514 12.060 23.966 6.372 36.16l-448 960c-5.342 11.44-16.772 18.47-28.99 18.47zM176.242 448h367.758c17.674 0 32 14.328 32 32v367.758l349.79-749.546-749.548 349.788z"></path>
</symbol>
<symbol id="icon-display" viewBox="0 0 1024 1024">
<title>display</title>
<path class="path1" d="M0 64v640h1024v-640h-1024zM960 640h-896v-512h896v512zM672 768h-320l-32 128-64 64h512l-64-64z"></path>
</symbol>
</defs>
</svg>
